<svg width="54" height="48" viewBox="0 0 54 48" fill="none" xmlns="http://www.w3.org/2000/svg">
<g clip-path="url(#clip0_5_487)">
<path d="M7.25891 36.2853C9.20439 37.6424 12.3586 37.6424 14.3042 36.2853C16.2496 34.9283 16.2496 32.7282 14.3042 31.3712C12.3586 30.0141 9.20439 30.0141 7.25891 31.3712C5.31344 32.7282 5.31344 34.9283 7.25891 36.2853Z" fill="#E108B1"/>
<path d="M27.4512 17.8574C30.3695 19.8929 35.1007 19.8929 38.019 17.8574C40.9372 15.8219 40.9372 12.5217 38.019 10.4862C35.1007 8.45072 30.3695 8.45072 27.4512 10.4862C24.533 12.5217 24.533 15.8219 27.4512 17.8574Z" fill="#E108B1"/>
<path d="M16.7323 27.0714C19.1642 28.7675 23.107 28.7675 25.5388 27.0714C27.9706 25.3751 27.9706 22.6249 25.5388 20.9286C23.107 19.2325 19.1642 19.2325 16.7323 20.9286C14.3005 22.6249 14.3005 25.3751 16.7323 27.0714Z" fill="#E108B1"/>
<path d="M1.09433 25.8429C2.55344 26.8606 4.91912 26.8606 6.37823 25.8429C7.83733 24.8251 7.83733 23.1751 6.37823 22.1572C4.91912 21.1395 2.55344 21.1395 1.09433 22.1572C-0.364777 23.1751 -0.364776 24.8251 1.09433 25.8429Z" fill="#E108B1"/>
<path d="M16.7323 7.41484C19.1642 9.11108 23.107 9.11108 25.5388 7.41484C27.9706 5.71859 27.9706 2.96843 25.5388 1.27219C23.107 -0.424062 19.1642 -0.424063 16.7323 1.27219C14.3005 2.96843 14.3005 5.71859 16.7323 7.41484Z" fill="#E108B1"/>
<path d="M7.25891 16.6289C9.20439 17.9859 12.3586 17.9859 14.3042 16.6289C16.2495 15.2719 16.2495 13.0717 14.3042 11.7148C12.3586 10.3578 9.20439 10.3578 7.25891 11.7148C5.31343 13.0717 5.31344 15.2719 7.25891 16.6289Z" fill="#E108B1"/>
<path d="M16.7323 46.7279C19.1642 48.424 23.107 48.424 25.5388 46.7279C27.9706 45.0316 27.9706 42.2814 25.5388 40.5851C23.107 38.8889 19.1642 38.8889 16.7323 40.5851C14.3005 42.2814 14.3005 45.0316 16.7323 46.7279Z" fill="#E108B1"/>
<path d="M40.2962 27.6857C43.2144 29.7211 47.9458 29.7211 50.864 27.6857C53.7823 25.6502 53.7823 22.35 50.864 20.3145C47.9458 18.2789 43.2144 18.2789 40.2962 20.3145C37.378 22.35 37.378 25.6502 40.2962 27.6857Z" fill="#E108B1"/>
<path d="M27.4512 37.5137C30.3695 39.5493 35.1007 39.5493 38.019 37.5137C40.9372 35.4783 40.9372 32.1781 38.019 30.1426C35.1007 28.1071 30.3695 28.1071 27.4512 30.1426C24.533 32.1781 24.533 35.4783 27.4512 37.5137Z" fill="#E108B1"/>
</g>
<defs>
<clipPath id="clip0_5_487">
<rect width="53.0526" height="48" fill="white"/>
</clipPath>
</defs>
</svg>
